<?xml version="1.0" encoding="UTF-8" standalone="no"?>
<!-- Generator: Adobe Illustrator 18.1.1, SVG Export Plug-In . SVG Version: 6.00 Build 0)  -->

<svg
   xmlns:dc="http://purl.org/dc/elements/1.1/"
   xmlns:cc="http://creativecommons.org/ns#"
   xmlns:rdf="http://www.w3.org/1999/02/22-rdf-syntax-ns#"
   xmlns:svg="http://www.w3.org/2000/svg"
   xmlns="http://www.w3.org/2000/svg"
   xmlns:sodipodi="http://sodipodi.sourceforge.net/DTD/sodipodi-0.dtd"
   xmlns:inkscape="http://www.inkscape.org/namespaces/inkscape"
   version="1.1"
   id="Layer_1"
   x="0px"
   y="0px"
   width="84.700897"
   height="98.003281"
   viewBox="-84 265.3 84.700895 98.003279"
   enable-background="new -84 265.3 150 65"
   xml:space="preserve"
   inkscape:version="0.48.4 r9939"
   sodipodi:docname="tree.svg"><metadata
     id="metadata209"><rdf:RDF><cc:Work
         rdf:about=""><dc:format>image/svg+xml</dc:format><dc:type
           rdf:resource="http://purl.org/dc/dcmitype/StillImage" /><dc:title></dc:title></cc:Work></rdf:RDF></metadata><defs
     id="defs207" /><sodipodi:namedview
     pagecolor="#ffffff"
     bordercolor="#666666"
     borderopacity="1"
     objecttolerance="10"
     gridtolerance="10"
     guidetolerance="10"
     inkscape:pageopacity="0"
     inkscape:pageshadow="2"
     inkscape:window-width="1301"
     inkscape:window-height="744"
     id="namedview205"
     showgrid="false"
     inkscape:zoom="5.5060048"
     inkscape:cx="39.066031"
     inkscape:cy="76.843456"
     inkscape:window-x="65"
     inkscape:window-y="24"
     inkscape:window-maximized="1"
     inkscape:current-layer="Layer_1"
     fit-margin-top="0"
     fit-margin-left="0"
     fit-margin-right="0"
     fit-margin-bottom="0" /><rect
     style="fill:none"
     id="rect5"
     height="59.700001"
     width="151.10001"
     y="252.99997"
     x="-99.599998" /><g
     id="g4379"
     transform="matrix(2.7147723,0,0,2.7147723,144.04087,-454.92909)"><g
       transform="translate(-14.5,-14.9)"
       id="g43"><g
         id="g45"><g
           id="g47"><polygon
             points="-51.1,296.7 -51.1,299.9 -48.3,301.6 -48,301.6 -48.1,301.7 -38.4,307.3 -38.4,289.3 "
             id="polygon49"
             style="fill:#e52823" /><polygon
             points="-59.8,301.6 -59.6,301.6 -56.7,299.9 -56.7,296.7 -69.5,289.3 -69.5,307.3 -59.8,301.7 "
             id="polygon51"
             style="fill:#6d0020" /><g
             id="g53"><polygon
               points="-38.4,280.3 -53.9,280.3 -38.4,289.3 "
               id="polygon55"
               style="fill:#e52823" /></g><g
             id="g57"><polygon
               points="-53.9,280.3 -69.5,280.3 -69.5,289.3 "
               id="polygon59"
               style="fill:#6d0020" /></g><g
             id="g61"><path
               d="m -47.5,304.1 v 1.1 H -48 c -0.5,0.3 -0.8,0.8 -1,1.6 h -0.6 l 0.1,1.2 0.3,5.6 10.8,-6.3 -9.7,-5.6 -0.5,2.4 h 1.1 z"
               id="path63"
               inkscape:connector-curvature="0"
               style="fill:#6d0020" /><polygon
               points="-51.1,301.6 -48.3,301.6 -51.1,299.9 "
               id="polygon65"
               style="fill:#6d0020" /></g><g
             id="g67"><path
               d="m -59.2,304.1 -0.5,-2.4 -9.7,5.6 10.8,6.3 0.4,-6.8 h -0.6 c -0.1,-0.8 -0.5,-1.3 -1,-1.6 h -0.5 v -1.1 h 1.1 z"
               id="path69"
               inkscape:connector-curvature="0"
               style="fill:#e52823" /><polygon
               points="-56.7,301.6 -56.7,299.9 -59.6,301.6 "
               id="polygon71"
               style="fill:#e52823" /></g><g
             id="g73"><g
               id="g75"><g
                 id="g77"><path
                   d="m -53.6,291.4 c 0.1,0 0.1,0 0.2,0 0.1,-0.1 0.2,-0.3 0.2,-0.6 0,-0.4 -0.4,-0.8 -0.8,-0.8 -0.1,0 -0.1,0 -0.2,0 -0.2,0.1 -0.2,0.3 -0.2,0.6 0,0.4 0.4,0.8 0.8,0.8 z"
                   id="path79"
                   inkscape:connector-curvature="0"
                   style="fill:#ffffff" /></g></g></g><g
             id="g81"><path
               d="m -52.7,307 c -2.2,0 -2.9,1.4 -2.9,1.4 l -0.1,0.3 -0.2,6.5 2,1.1 4.7,-2.7 -0.3,-5.6 c 0,-0.1 -0.6,-1.1 -3.2,-1 z"
               id="path83"
               inkscape:connector-curvature="0"
               style="fill:#ffffff" /></g><g
             id="g85"><path
               d="m -60.3,304.1 v 1.1 h 0.5 c 0.5,0.3 0.8,0.8 1,1.6 h 0.6 l -0.4,6.8 2.7,1.6 0.2,-6.5 0.1,-0.3 c 0,0 0.6,-1.4 2.9,-1.4 2.6,0 3.1,0.9 3.2,1 l -0.1,-1.2 h 0.6 c 0.1,-0.8 0.5,-1.3 1,-1.6 h 0.5 v -1.1 h -12.8 z"
               id="path87"
               inkscape:connector-curvature="0"
               style="fill:#b3b3b3" /></g><path
             d="m -53.4,311.5 c 0,-0.2 -0.2,-0.5 -0.5,-0.5 -0.3,0 -0.5,0.3 -0.5,0.5 v 1.4 h 1.1 v -1.4 z"
             id="path89"
             inkscape:connector-curvature="0"
             style="fill:#b3b3b3" /></g></g><g
         id="g91"><polygon
           points="-56,295.7 -56,296.5 -53.9,297.7 -51.9,296.5 -51.9,295.7 "
           id="polygon93"
           style="fill:#6d0020" /><polygon
           points="-53.9,298.9 -56,300.1 -56,300.9 -51.9,300.9 -51.9,300.1 "
           id="polygon95"
           style="fill:#6d0020" /></g></g><g
       transform="translate(-14.5,-14.9)"
       id="g97"><path
         style="fill:#6d0020"
         inkscape:connector-curvature="0"
         id="path99"
         d="m -51.1,295 h 0.2 c 0.2,0 0.3,0.1 0.3,0.3 0,0.2 -0.1,0.3 -0.3,0.3 h -0.2 v 1 l 12.8,-7.4 -15.6,-9 v 9.7 c 0.4,0 0.8,0.4 0.8,0.8 0,0.2 -0.1,0.4 -0.2,0.6 h 0 c 0,0 0,0 0,0 0,0 0,0 0,0 0,0 0,0 0,0 -0.1,0.1 -0.2,0.3 -0.2,0.5 0,0.2 0.1,0.4 0.3,0.5 1.1,0.3 2.1,1.4 2.1,2.7 z" /></g><g
       transform="translate(-14.5,-14.9)"
       id="g101"><path
         style="fill:#b3b3b3"
         inkscape:connector-curvature="0"
         id="path103"
         d="M -53.9,300.9 H -56 v -0.8 l 2.1,-1.2 h 0 l 0,0 v -1.2 l -2.1,-1.2 v -0.8 h 0.9 c -0.1,0 -0.1,-0.2 -0.1,-0.3 0,-0.2 0.1,-0.3 0.1,-0.3 h 0.1 c 0,-1.5 0.5,-2.8 1.1,-2.8 0.2,0 0.4,0 0.6,0.1 -0.2,-0.1 -0.3,-0.3 -0.3,-0.5 0,-0.2 0.1,-0.3 0.2,-0.4 -0.1,0 -0.1,0 -0.2,0 -0.4,0 -0.8,-0.4 -0.8,-0.8 0,-0.2 0.1,-0.4 0.2,-0.6 -0.3,0.1 -0.6,0.4 -0.6,0.8 0,0.2 0.1,0.4 0.2,0.6 0.1,0.1 0.2,0.3 0.2,0.5 0,0.2 -0.1,0.4 -0.3,0.5 -1.2,0.3 -2.2,1.4 -2.2,2.7 h -0.2 c -0.2,0 -0.3,0.1 -0.3,0.3 0,0.2 0.1,0.3 0.3,0.3 h 0.2 v 5.9 h 2.8 v -0.8 z" /></g><path
       style="fill:#ffffff"
       inkscape:connector-curvature="0"
       id="path105"
       d="m -68.4,282.8 v 1.2 l 2.1,1.2 v 0.8 h -2.1 v 0.7 h -5.9 l 0.6,2.5 h 10.6 l 0.6,-2.5 h -3.1 v -5.9 h 0.2 c 0.2,0 0.3,-0.2 0.3,-0.3 0,-0.2 -0.1,-0.3 -0.3,-0.3 h -0.2 c 0,-1.5 -1.3,-2.8 -2.8,-2.8 -0.6,0 -1,1.2 -1.1,2.8 l 0,0 h -0.1 c -0.1,0 -0.1,0.1 -0.1,0.3 0,0.2 0,0.3 0.1,0.3 h 3.2 v 0.8 l -2,1.2 z" /><polygon
       transform="translate(-14.5,-14.9)"
       style="fill:#6d0020"
       id="polygon107"
       points="-56,297.5 -54.7,298.3 -56,299.1 " /><polygon
       transform="translate(-14.5,-14.9)"
       style="fill:#e52823"
       id="polygon109"
       points="-51.9,297.5 -53.2,298.3 -51.9,299.1 " /><polygon
       transform="translate(-14.5,-14.9)"
       style="fill:#ffffff"
       id="polygon111"
       points="-49.5,288.4 -50.3,287 -48.7,287.5 -48.1,286 -47.5,287.5 -46,287 -46.8,288.4 -45.5,289.3 -47.1,289.5 -46.9,291.2 -48.1,290.1 -49.3,291.2 -49.2,289.5 -50.8,289.3 " /><g
       transform="translate(-14.5,-14.9)"
       id="g113"><path
         style="fill:#e52823"
         inkscape:connector-curvature="0"
         id="path115"
         d="m -56.9,295.7 c -0.2,0 -0.3,-0.1 -0.3,-0.3 0,-0.2 0.1,-0.3 0.3,-0.3 h 0.2 c 0,-1.3 0.9,-2.4 2.2,-2.7 0.2,-0.1 0.3,-0.3 0.3,-0.5 0,-0.2 -0.1,-0.3 -0.2,-0.5 -0.1,-0.1 -0.2,-0.3 -0.2,-0.6 0,-0.4 0.3,-0.7 0.6,-0.8 0.1,0 0.1,0 0.2,0 v -9.7 l -15.6,9 12.8,7.4 v -1 h -0.3 z" /></g><g
       transform="translate(-14.5,-14.9)"
       id="g117"><g
         id="g119"><path
           style="fill:#b3b3b3"
           inkscape:connector-curvature="0"
           id="path121"
           d="m -56.4,303.6 h 0.8 l -0.1,-1.5 h -0.9 l 0.2,1.5 z" /></g><g
         id="g123"><path
           style="fill:#b3b3b3"
           inkscape:connector-curvature="0"
           id="path125"
           d="m -55,303.6 h 1.1 v -1.5 h -1.2 l 0.1,1.5 z" /></g><g
         id="g127"><path
           style="fill:#e52823"
           inkscape:connector-curvature="0"
           id="path129"
           d="m -57.7,303.6 h 0.7 l -0.2,-1.5 H -58 l 0.3,1.5 z" /></g><g
         id="g131"><path
           style="fill:#e52823"
           inkscape:connector-curvature="0"
           id="path133"
           d="m -58.8,303.6 h 0.6 l -0.3,-1.5 h -0.6 l 0.3,1.5 z" /></g><g
         id="g135"><path
           style="fill:#6d0020"
           inkscape:connector-curvature="0"
           id="path137"
           d="m -50.9,303.6 h 0.7 l 0.3,-1.5 h -0.8 l -0.2,1.5 z" /></g><g
         id="g139"><path
           style="fill:#6d0020"
           inkscape:connector-curvature="0"
           id="path141"
           d="m -49.6,303.6 h 0.6 l 0.3,-1.5 h -0.6 l -0.3,1.5 z" /></g></g></g></svg>