<?xml version="1.0" encoding="UTF-8" standalone="no"?>
<svg
   xmlns:dc="http://purl.org/dc/elements/1.1/"
   xmlns:cc="http://creativecommons.org/ns#"
   xmlns:rdf="http://www.w3.org/1999/02/22-rdf-syntax-ns#"
   xmlns:svg="http://www.w3.org/2000/svg"
   xmlns="http://www.w3.org/2000/svg"
   xmlns:sodipodi="http://sodipodi.sourceforge.net/DTD/sodipodi-0.dtd"
   xmlns:inkscape="http://www.inkscape.org/namespaces/inkscape"
   version="1.1"
   id="svg2"
   inkscape:version="0.91 r13725"
   sodipodi:docname="tree.svg"
   width="6.7438436cm"
   height="2.4764755cm">
  <metadata
     id="metadata135">
    <rdf:RDF>
      <cc:Work
         rdf:about="">
        <dc:format>image/svg+xml</dc:format>
        <dc:type
           rdf:resource="http://purl.org/dc/dcmitype/StillImage" />
        <dc:title></dc:title>
      </cc:Work>
    </rdf:RDF>
  </metadata>
  <sodipodi:namedview
     pagecolor="#ffffff"
     bordercolor="#666666"
     borderopacity="1"
     objecttolerance="10"
     gridtolerance="10"
     guidetolerance="10"
     inkscape:pageopacity="0"
     inkscape:pageshadow="2"
     inkscape:window-width="1305"
     inkscape:window-height="744"
     id="namedview133"
     showgrid="false"
     fit-margin-top="0"
     fit-margin-left="0"
     fit-margin-right="0"
     fit-margin-bottom="0"
     units="cm"
     inkscape:zoom="1.668772"
     inkscape:cx="50.512575"
     inkscape:cy="119.27706"
     inkscape:window-x="61"
     inkscape:window-y="24"
     inkscape:window-maximized="1"
     inkscape:current-layer="svg2" />
  <g
     transform="matrix(0.55376269,0,0,0.55376269,-50.265205,-8.1792112)"
     id="g4">
    <g
       clip-path="url(#cp1)"
       id="g6">
      <clipPath
         id="cp1">
        <polygon
           points="82,183 532,183 532,6 82,6 "
           id="polygon9" />
      </clipPath>
      <path
         d="m 274,62 -8.282,78.796 a 79.2297,79.2297 0 0 0 16.564,0 z"
         id="path11"
         inkscape:connector-curvature="0"
         style="opacity:1;fill:#e18b38;stroke:none" />
      <path
         d="m 282,141 8.282,-78.7957 a 79.2297,79.2297 0 0 0 -16.564,0 z"
         id="path13"
         inkscape:connector-curvature="0"
         style="opacity:1;fill:#607ff1;stroke:none" />
      <path
         d="m 290,62 -8.282,78.796 a 79.2297,79.2297 0 0 0 16.564,0 z"
         id="path15"
         inkscape:connector-curvature="0"
         style="opacity:1;fill:#f5df4b;stroke:none" />
      <path
         d="m 298,141 8.282,-78.7957 a 79.2297,79.2297 0 0 0 -16.564,0 z"
         id="path17"
         inkscape:connector-curvature="0"
         style="opacity:1;fill:#fcfce6;stroke:none" />
      <path
         d="m 307,62 -8.282,78.796 a 79.2297,79.2297 0 0 0 16.564,0 z"
         id="path19"
         inkscape:connector-curvature="0"
         style="opacity:1;fill:#f7f9f1;stroke:none" />
      <path
         d="m 315,141 8.282,-78.7957 a 79.2297,79.2297 0 0 0 -16.564,0 z"
         id="path21"
         inkscape:connector-curvature="0"
         style="opacity:1;fill:#e6a43d;stroke:none" />
      <path
         d="m 323,62 -8.282,78.796 a 79.2297,79.2297 0 0 0 16.564,0 z"
         id="path23"
         inkscape:connector-curvature="0"
         style="opacity:1;fill:#efc844;stroke:none" />
      <path
         d="m 332,141 8.282,-78.7957 a 79.2297,79.2297 0 0 0 -16.564,0 z"
         id="path25"
         inkscape:connector-curvature="0"
         style="opacity:1;fill:#d5432e;stroke:none" />
      <path
         d="m 340,62 -8.282,78.796 a 79.2297,79.2297 0 0 0 16.564,0 z"
         id="path27"
         inkscape:connector-curvature="0"
         style="opacity:1;fill:#b7c7f8;stroke:none" />
      <path
         d="m 348,141 8.282,-78.7957 a 79.2297,79.2297 0 0 0 -16.564,0 z"
         id="path29"
         inkscape:connector-curvature="0"
         style="opacity:1;fill:#ecbd42;stroke:none" />
      <path
         d="m 356,62 -8.282,78.796 a 79.2297,79.2297 0 0 0 16.564,0 z"
         id="path31"
         inkscape:connector-curvature="0"
         style="opacity:1;fill:#4061f0;stroke:none" />
      <path
         d="m 365,141 8.282,-78.7957 a 79.2297,79.2297 0 0 0 -16.564,0 z"
         id="path33"
         inkscape:connector-curvature="0"
         style="opacity:1;fill:#f1cf45;stroke:none" />
      <path
         d="m 373,62 -8.282,78.796 a 79.2297,79.2297 0 0 0 16.564,0 z"
         id="path35"
         inkscape:connector-curvature="0"
         style="opacity:1;fill:#b3c3f8;stroke:none" />
      <path
         d="m 381,141 8.282,-78.7957 a 79.2297,79.2297 0 0 0 -16.564,0 z"
         id="path37"
         inkscape:connector-curvature="0"
         style="opacity:1;fill:#edc243;stroke:none" />
      <path
         d="m 390,62 -8.282,78.796 a 79.2297,79.2297 0 0 0 16.564,0 z"
         id="path39"
         inkscape:connector-curvature="0"
         style="opacity:1;fill:#95acf5;stroke:none" />
      <path
         d="m 398,141 8.282,-78.7957 a 79.2297,79.2297 0 0 0 -16.564,0 z"
         id="path41"
         inkscape:connector-curvature="0"
         style="opacity:1;fill:#a5b9f7;stroke:none" />
      <path
         d="m 406,62 -8.282,78.796 a 79.2297,79.2297 0 0 0 16.564,0 z"
         id="path43"
         inkscape:connector-curvature="0"
         style="opacity:1;fill:#f3da47;stroke:none" />
      <path
         d="m 414,141 8.282,-78.7957 a 79.2297,79.2297 0 0 0 -16.564,0 z"
         id="path45"
         inkscape:connector-curvature="0"
         style="opacity:1;fill:#9eb3f6;stroke:none" />
      <path
         d="m 423,62 -8.282,78.796 a 79.2297,79.2297 0 0 0 16.564,0 z"
         id="path47"
         inkscape:connector-curvature="0"
         style="opacity:1;fill:#ecba41;stroke:none" />
      <path
         d="m 431,141 8.282,-78.7957 a 79.2297,79.2297 0 0 0 -16.564,0 z"
         id="path49"
         inkscape:connector-curvature="0"
         style="opacity:1;fill:#df8537;stroke:none" />
      <path
         d="m 439,62 -8.282,78.796 a 79.2297,79.2297 0 0 0 16.564,0 z"
         id="path51"
         inkscape:connector-curvature="0"
         style="opacity:1;fill:#fdfdd7;stroke:none" />
      <path
         d="m 447,141 8.282,-78.7957 a 79.2297,79.2297 0 0 0 -16.564,0 z"
         id="path53"
         inkscape:connector-curvature="0"
         style="opacity:1;fill:#ecbb41;stroke:none" />
      <path
         d="m 456,62 -8.282,78.796 a 79.2297,79.2297 0 0 0 16.564,0 z"
         id="path55"
         inkscape:connector-curvature="0"
         style="opacity:1;fill:#e29239;stroke:none" />
      <path
         d="m 464,141 8.282,-78.7957 a 79.2297,79.2297 0 0 0 -16.564,0 z"
         id="path57"
         inkscape:connector-curvature="0"
         style="opacity:1;fill:#fbf362;stroke:none" />
      <path
         d="m 472,62 -8.282,78.796 a 79.2297,79.2297 0 0 0 16.564,0 z"
         id="path59"
         inkscape:connector-curvature="0"
         style="opacity:1;fill:#ebb941;stroke:none" />
      <path
         d="m 481,141 8.282,-78.7957 a 79.2297,79.2297 0 0 0 -16.564,0 z"
         id="path61"
         inkscape:connector-curvature="0"
         style="opacity:1;fill:#dd7d35;stroke:none" />
      <path
         d="m 489,62 -8.282,78.796 a 79.2297,79.2297 0 0 0 16.564,0 z"
         id="path63"
         inkscape:connector-curvature="0"
         style="opacity:1;fill:#fcfddd;stroke:none" />
      <path
         d="m 497,141 8.282,-78.7957 a 79.2297,79.2297 0 0 0 -16.564,0 z"
         id="path65"
         inkscape:connector-curvature="0"
         style="opacity:1;fill:#fefc7d;stroke:none" />
      <path
         d="m 505,62 -8.282,78.796 a 79.2297,79.2297 0 0 0 16.564,0 z"
         id="path67"
         inkscape:connector-curvature="0"
         style="opacity:1;fill:#f3d747;stroke:none" />
      <path
         d="m 514,141 8.282,-78.7957 a 79.2297,79.2297 0 0 0 -16.564,0 z"
         id="path69"
         inkscape:connector-curvature="0"
         style="opacity:1;fill:#f9ed5b;stroke:none" />
      <path
         d="M 170,94 247.498,77.5272 A 79.2297,79.2297 0 0 0 242.38,61.7744 Z"
         id="path71"
         inkscape:connector-curvature="0"
         style="opacity:1;fill:#e18b38;stroke:none" />
      <path
         d="M 170,94 242.38,61.7744 A 79.2297,79.2297 0 0 0 234.098,47.4299 Z"
         id="path73"
         inkscape:connector-curvature="0"
         style="opacity:1;fill:#607ff1;stroke:none" />
      <path
         d="M 170,94 234.098,47.4299 A 79.2297,79.2297 0 0 0 223.015,35.1208 Z"
         id="path75"
         inkscape:connector-curvature="0"
         style="opacity:1;fill:#f5df4b;stroke:none" />
      <path
         d="m 170,94 53.015,-58.8792 a 79.2297,79.2297 0 0 0 -13.4,-9.7358 z"
         id="path77"
         inkscape:connector-curvature="0"
         style="opacity:1;fill:#fcfce6;stroke:none" />
      <path
         d="M 170,94 209.615,25.385 A 79.2297,79.2297 0 0 0 194.483,18.6481 Z"
         id="path79"
         inkscape:connector-curvature="0"
         style="opacity:1;fill:#f7f9f1;stroke:none" />
      <path
         d="M 170,94 194.483,18.6481 A 79.2297,79.2297 0 0 0 178.282,15.2043 Z"
         id="path81"
         inkscape:connector-curvature="0"
         style="opacity:1;fill:#e6a43d;stroke:none" />
      <path
         d="m 170,94 8.282,-78.7957 a 79.2297,79.2297 0 0 0 -16.564,0 z"
         id="path83"
         inkscape:connector-curvature="0"
         style="opacity:1;fill:#efc844;stroke:none" />
      <path
         d="m 170,94 -8.282,-78.7957 a 79.2297,79.2297 0 0 0 -16.201,3.4438 z"
         id="path85"
         inkscape:connector-curvature="0"
         style="opacity:1;fill:#d5432e;stroke:none" />
      <path
         d="M 170,94 145.517,18.6481 a 79.2297,79.2297 0 0 0 -15.132,6.7369 z"
         id="path87"
         inkscape:connector-curvature="0"
         style="opacity:1;fill:#b7c7f8;stroke:none" />
      <path
         d="M 170,94 130.385,25.385 a 79.2297,79.2297 0 0 0 -13.4,9.7358 z"
         id="path89"
         inkscape:connector-curvature="0"
         style="opacity:1;fill:#ecbd42;stroke:none" />
      <path
         d="M 170,94 116.985,35.1208 a 79.2297,79.2297 0 0 0 -11.083,12.3091 z"
         id="path91"
         inkscape:connector-curvature="0"
         style="opacity:1;fill:#4061f0;stroke:none" />
      <path
         d="M 170,94 105.902,47.4299 A 79.2297,79.2297 0 0 0 97.62,61.7744 Z"
         id="path93"
         inkscape:connector-curvature="0"
         style="opacity:1;fill:#f1cf45;stroke:none" />
      <path
         d="M 170,94 97.62,61.7744 a 79.2297,79.2297 0 0 0 -5.1184,15.7528 z"
         id="path95"
         inkscape:connector-curvature="0"
         style="opacity:1;fill:#b3c3f8;stroke:none" />
      <path
         d="M 170,94 92.5016,77.5272 A 79.2297,79.2297 0 0 0 90.7703,94 Z"
         id="path97"
         inkscape:connector-curvature="0"
         style="opacity:1;fill:#edc243;stroke:none" />
      <path
         d="m 170,94 -79.2297,0 a 79.2297,79.2297 0 0 0 1.7313,16.473 z"
         id="path99"
         inkscape:connector-curvature="0"
         style="opacity:1;fill:#95acf5;stroke:none" />
      <path
         d="M 170,94 92.5016,110.473 A 79.2297,79.2297 0 0 0 97.62,126.226 Z"
         id="path101"
         inkscape:connector-curvature="0"
         style="opacity:1;fill:#a5b9f7;stroke:none" />
      <path
         d="m 170,94 -72.38,32.226 a 79.2297,79.2297 0 0 0 8.282,14.344 z"
         id="path103"
         inkscape:connector-curvature="0"
         style="opacity:1;fill:#f3da47;stroke:none" />
      <path
         d="m 170,94 -64.098,46.57 a 79.2297,79.2297 0 0 0 11.083,12.309 z"
         id="path105"
         inkscape:connector-curvature="0"
         style="opacity:1;fill:#9eb3f6;stroke:none" />
      <path
         d="m 170,94 -53.015,58.879 a 79.2297,79.2297 0 0 0 13.4,9.736 z"
         id="path107"
         inkscape:connector-curvature="0"
         style="opacity:1;fill:#ecba41;stroke:none" />
      <path
         d="m 170,94 -39.615,68.615 a 79.2297,79.2297 0 0 0 15.132,6.737 z"
         id="path109"
         inkscape:connector-curvature="0"
         style="opacity:1;fill:#df8537;stroke:none" />
      <path
         d="m 170,94 -24.483,75.352 a 79.2297,79.2297 0 0 0 16.201,3.444 z"
         id="path111"
         inkscape:connector-curvature="0"
         style="opacity:1;fill:#fdfdd7;stroke:none" />
      <path
         d="m 170,94 -8.282,78.796 a 79.2297,79.2297 0 0 0 16.564,0 z"
         id="path113"
         inkscape:connector-curvature="0"
         style="opacity:1;fill:#ecbb41;stroke:none" />
      <path
         d="m 170,94 8.282,78.796 a 79.2297,79.2297 0 0 0 16.201,-3.444 z"
         id="path115"
         inkscape:connector-curvature="0"
         style="opacity:1;fill:#e29239;stroke:none" />
      <path
         d="m 170,94 24.483,75.352 a 79.2297,79.2297 0 0 0 15.132,-6.737 z"
         id="path117"
         inkscape:connector-curvature="0"
         style="opacity:1;fill:#fbf362;stroke:none" />
      <path
         d="m 170,94 39.615,68.615 a 79.2297,79.2297 0 0 0 13.4,-9.736 z"
         id="path119"
         inkscape:connector-curvature="0"
         style="opacity:1;fill:#ebb941;stroke:none" />
      <path
         d="m 170,94 53.015,58.879 a 79.2297,79.2297 0 0 0 11.083,-12.309 z"
         id="path121"
         inkscape:connector-curvature="0"
         style="opacity:1;fill:#dd7d35;stroke:none" />
      <path
         d="m 170,94 64.098,46.57 a 79.2297,79.2297 0 0 0 8.282,-14.344 z"
         id="path123"
         inkscape:connector-curvature="0"
         style="opacity:1;fill:#fcfddd;stroke:none" />
      <path
         d="m 170,94 72.38,32.226 a 79.2297,79.2297 0 0 0 5.118,-15.753 z"
         id="path125"
         inkscape:connector-curvature="0"
         style="opacity:1;fill:#fefc7d;stroke:none" />
      <path
         d="m 170,94 77.498,16.473 A 79.2297,79.2297 0 0 0 249.23,94 Z"
         id="path127"
         inkscape:connector-curvature="0"
         style="opacity:1;fill:#f3d747;stroke:none" />
      <path
         d="m 170,94 79.23,0 a 79.2297,79.2297 0 0 0 -1.732,-16.4728 z"
         id="path129"
         inkscape:connector-curvature="0"
         style="opacity:1;fill:#f9ed5b;stroke:none" />
    </g>
  </g>
  <defs
     id="defs131" />
</svg>
