<?xml version="1.0" encoding="UTF-8" standalone="no"?>
<!-- Created with Inkscape (http://www.inkscape.org/) -->

<svg
   xmlns:dc="http://purl.org/dc/elements/1.1/"
   xmlns:cc="http://creativecommons.org/ns#"
   xmlns:rdf="http://www.w3.org/1999/02/22-rdf-syntax-ns#"
   xmlns:svg="http://www.w3.org/2000/svg"
   xmlns="http://www.w3.org/2000/svg"
   xmlns:sodipodi="http://sodipodi.sourceforge.net/DTD/sodipodi-0.dtd"
   xmlns:inkscape="http://www.inkscape.org/namespaces/inkscape"
   version="1.0"
   width="77.951202"
   height="77.951202"
   id="svg2"
   xml:space="preserve"
   inkscape:version="0.48.4 r9939"
   sodipodi:docname="tree.svg"><metadata
     id="metadata32"><rdf:RDF><cc:Work
         rdf:about=""><dc:format>image/svg+xml</dc:format><dc:type
           rdf:resource="http://purl.org/dc/dcmitype/StillImage" /></cc:Work></rdf:RDF></metadata><sodipodi:namedview
     pagecolor="#ffffff"
     bordercolor="#666666"
     borderopacity="1"
     objecttolerance="10"
     gridtolerance="10"
     guidetolerance="10"
     inkscape:pageopacity="0"
     inkscape:pageshadow="2"
     inkscape:window-width="1301"
     inkscape:window-height="744"
     id="namedview30"
     showgrid="false"
     fit-margin-top="0"
     fit-margin-left="0"
     fit-margin-right="0"
     fit-margin-bottom="0"
     inkscape:zoom="1.5328084"
     inkscape:cx="112.81507"
     inkscape:cy="33.140313"
     inkscape:window-x="65"
     inkscape:window-y="24"
     inkscape:window-maximized="1"
     inkscape:current-layer="svg2" /><defs
     id="defs5"><clipPath
       id="clipPath19"><path
         d="m 0,0 3039.31,0 0,479.281 L 0,479.281 0,0 z"
         id="path21"
         inkscape:connector-curvature="0" /></clipPath></defs><path
     d="M 34.58462,0 0,0.04526783 0,77.951199 l 40.016759,0 37.93444,0 0,-77.90593117 -43.366579,0 L 34.58462,0 z"
     id="path2891"
     style="fill:#00784b;fill-opacity:1;fill-rule:nonzero;stroke:none"
     inkscape:connector-curvature="0" /><path
     d="m 26.708018,13.399277 7.242852,0 1.222232,0 8.057673,0 0,2.127588 c 0,4.71057 3.844144,8.555619 8.555619,8.555619 4.712019,0 8.510352,-3.845049 8.510352,-8.555619 l 0,-2.127588 4.255176,0 0,8.510351 c 0,7.067576 -5.697409,12.810796 -12.765528,12.810796 -7.066851,0 -12.810795,-5.74322 -12.810795,-12.810796 l 0,-5.296335 0,-0.04527 c -5.594741,0 -10.139993,4.545252 -10.139993,10.139993 0,5.235677 4.002581,9.563462 9.098833,10.094726 l 13.670884,1.131695 0.09054,0 c 7.153761,0.238131 12.901331,6.097682 12.901331,13.308742 0,7.362359 -5.992193,13.354009 -13.354009,13.354009 l -12.131778,0 -4.390979,0 0,-2.172856 c 0,-4.711367 -3.797609,-8.510352 -8.510352,-8.510352 -4.710751,0 -8.555619,3.798985 -8.555619,8.510352 l 0,2.172856 -4.255176,0 0,-8.55562 c 0,-7.067394 5.742676,-12.765527 12.810795,-12.765527 7.067394,0 12.765527,5.698133 12.765527,12.765527 l 0,5.341604 c 5.594923,0 10.139994,-4.545252 10.139994,-10.139993 0,-5.41023 -4.284872,-9.828008 -9.642048,-10.094726 L 25.802662,40.016759 C 18.87089,39.542896 13.399277,33.760021 13.399277,26.708018 c 0,-7.361635 5.946382,-13.308741 13.308741,-13.308741 z"
     id="path23"
     style="fill:#ffffff;fill-opacity:1;fill-rule:nonzero;stroke:none"
     inkscape:connector-curvature="0" /></svg>